# xmcd
#
# Track frame offsets: 
#        150
#        22968
#        39083
#        54761
#        72508
#        86326
#        102447
#        118043
#        137934
#        161150
#        174215
#        194901
#        210781
#        239414
#        258633
#
# Disc length: 3682 seconds
#
# Revision: 0
# Processed by: cddbd v1.5.2PL0 Copyright (c) Steve Scherf et al.
# Submitted via: ExactAudioCopyFreeDBPlugin 1.0
#
DISCID=cb0e600f
DTITLE=Various Artist - MOJO - The New Thunder Revue
DYEAR=2019
DGENRE=Blues
TTITLE0=Bob Dylan - The Lonesome Death Of Hattie Carroll
TTITLE1=Margo Price - Most Likely You Go You Way And I'll Go Mine
TTITLE2=Jeff Tweedy - Don't Forget
TTITLE3=Courtney Barnett - Walkin' On Eggshells
TTITLE4=Kevin Morby - No Halo
TTITLE5=Wooden Wand - Sacrificial
TTITLE6=Will Oldham - New Partner
TTITLE7=Phosphorescent - These Rocks
TTITLE8=Robert Forster - One Bird In The Sky
TTITLE9=Hurray For The Riff Raff - Life To Save
TTITLE10=The Skiffle Players - You'll Miss It When It's Gone
TTITLE11=Jason Isbell - Chaos And Clothes
TTITLE12=Drive-By Truckers - What It Means
TTITLE13=Doug Paisley - Drinking With A Friend
TTITLE14=Hiss Golden Messenger - The Revenant
EXTD=
EXTT0=
EXTT1=
EXTT2=
EXTT3=
EXTT4=
EXTT5=
EXTT6=
EXTT7=
EXTT8=
EXTT9=
EXTT10=
EXTT11=
EXTT12=
EXTT13=
EXTT14=
PLAYORDER=
